# xmcd CD database file
#
# Track frame offsets:
#	150
#	19660
#	42325
#	64920
#	94815
#	116535
#	140895
#	165475
#	189295
#	211930
#	230580
#	258785
#	282795
#	303600
#	327465
#
# Disc length: 4574 seconds
#
# Revision: 8
# Processed by: cddbd v1.5.2PL0 Copyright (c) Steve Scherf et al.
# Submitted via: CDex 1.70beta2
#
DISCID=d611dc0f
DTITLE=Kenny G - Kenny G Breathless
DYEAR=1992
DGENRE=Smooth Jazz
TTITLE0=The Joy Of Life
TTITLE1=Forever In Love
TTITLE2=In The Rain
TTITLE3=Sentimental
TTITLE4=By The Time  This Nights Is Over
TTITLE5=End Of The Night
TTITLE6=Alone
TTITLE7=Mornig
TTITLE8=Even If My Heart Would Break
TTITLE9=G-Bop
TTITLE10=Sister Rose
TTITLE11=A Year Ago
TTITLE12=Homeland
TTITLE13=Natural Ride
TTITLE14=The Wedding Song
EXTD=YEAR: 1992
EXTT0=
EXTT1=
EXTT2=
EXTT3=
EXTT4=with Peabo Bryson
EXTT5=
EXTT6=
EXTT7=
EXTT8=
EXTT9=
EXTT10=
EXTT11=
EXTT12=
EXTT13=
EXTT14=Not on the U.S. album
PLAYORDER=
